<svg width="64" height="64" viewBox="0 0 64 64" fill="none" xmlns="http://www.w3.org/2000/svg">
<rect width="64" height="64" rx="16" fill="url(#paint0_linear_319_12)"/>
<path d="M40.359 13.279C35.6441 14.3271 33.0338 17.8656 31.6328 20.8792C30.2318 17.865 27.6215 14.3277 22.9067 13.279C18.3668 12.2681 13.3476 14.061 10.4233 17.7368C7.63259 21.2435 7.2323 25.772 9.32605 30.1608C11.5325 34.7846 15.6187 37.2499 19.5701 39.6331C24.0782 42.3524 28.3358 44.9208 30.1928 50.5458C30.3978 51.1673 30.9784 51.5873 31.6334 51.5873C32.2884 51.5873 32.869 51.1679 33.074 50.5458C34.9304 44.9208 39.188 42.3524 43.6961 39.6331C47.6481 37.2493 51.7344 34.7846 53.9402 30.1608C56.0339 25.772 55.6336 21.2435 52.843 17.7368C49.9175 14.061 44.9018 12.2693 40.359 13.279ZM51.201 28.8551C49.3871 32.6579 45.8612 34.7846 42.1285 37.0365C38.3803 39.2969 34.2215 41.8053 31.6328 46.344C29.0441 41.8053 24.8854 39.2969 21.1365 37.0359C17.4038 34.784 13.8785 32.6573 12.064 28.8545C10.4658 25.5053 10.7259 22.2281 12.7963 19.6262C14.6042 17.3545 17.4596 16.0307 20.3137 16.0307C20.9627 16.0307 21.6117 16.099 22.2481 16.2405C28.7133 17.6774 30.1209 25.9548 30.1341 26.0351C30.2504 26.7715 30.8844 27.3133 31.6298 27.315C31.631 27.315 31.6316 27.315 31.6334 27.315C32.3777 27.315 33.0129 26.7733 33.1309 26.0381C33.1441 25.9548 34.5517 17.6774 41.0163 16.2405C44.4548 15.4758 48.2504 16.8373 50.4688 19.6262C52.5391 22.2281 52.7992 25.5053 51.201 28.8551Z" fill="#47ABFF"/>
<defs>
<linearGradient id="paint0_linear_319_12" x1="32" y1="0" x2="32" y2="64" gradientUnits="userSpaceOnUse">
<stop stop-color="#1A1A1A"/>
<stop offset="1" stop-color="#1C223C"/>
</linearGradient>
</defs>
</svg>
